{"title":"Arrow.The.Ultimate.Weapon.2011.HDRip.XviD.AC3-JSB","uid":6865802,"size":1475635766,"categoryP":"video","categoryS":"movies","magnet":"?xt=urn:btih:2e1f58e4360285f72d20576a4905f4b5d9e85e2a&amp;dn=Arrow.The.Ultimate.Weapon.2011.HDRip.XviD.AC3-JSB&amp;tr=udp%3A%2F%2Ftracker.openbittorrent.com%3A80&amp;tr=udp%3A%2F%2Fopen.demonii.com%3A1337&amp;tr=udp%3A%2F%2Ftracker.coppersurfer.tk%3A6969&amp;tr=udp%3A%2F%2Fexodus.desync.com%3A6969","seeders":1,"leechers":0,"uploader":"MisterNobody","files":1,"time":1323099136,"description":"Arrow.The.Ultimate.Weapon.2011.HDRip.XviD.AC3-JSB\n\nFormat                           : AVI\nFile size                        : 1.37 GiB\nDuration                         : 1h 54mn\n\nFormat profile                   : Simple@L1\nFormat settings, BVOP            : No\nFormat settings, QPel            : No\nFormat settings, GMC             : No warppoints\nFormat settings, Matrix          : Default (MPEG)\nCodec ID                         : XVID\nCodec ID/Hint                    : XviD\nDuration                         : 1h 54mn\nBit rate                         : 1 325 Kbps\nWidth                            : 720 pixels\nHeight                           : 400 pixels\nDisplay aspect ratio             : 16:9\nFrame rate                       : 23.976 fps\nColor space                      : YUV\nChroma subsampling               : 4:2:0\nBit depth                        : 8 bits\nScan type                        : Progressive\nCompression mode                 : Lossy\nBits/(Pixel*Frame)               : 0.192\nStream size                      : 1.06 GiB (77%)\nWriting library                  : Lavc52.108.0\n\nFormat                           : AC-3\nFormat/Info                      : Audio Coding 3\nMode extension                   : CM (complete main)\nCodec ID                         : 2000\nDuration                         : 1h 54mn\nBit rate mode                    : Constant\nBit rate                         : 384 Kbps\nChannel(s)                       : 6 channels\nChannel positions                : Front: L C R, Side: L R, LFE\nSampling rate                    : 48.0 KHz\nBit depth                        : 16 bits\nCompression mode                 : Lossy\nStream size                      : 88.2 MiB (6%)\nAlignment                        : Aligned on interleaves\nInterleave, duration             : 114 ms (2.73 video frames)\nInterleave, preload duration     : 32 ms\n\n","torrent":{"xt":"urn:btih:2e1f58e4360285f72d20576a4905f4b5d9e85e2a","amp;dn":"Arrow.The.Ultimate.Weapon.2011.HDRip.XviD.AC3-JSB","amp;tr":["udp%3A%2F%2Ftracker.openbittorrent.com%3A80","udp%3A%2F%2Fopen.demonii.com%3A1337","udp%3A%2F%2Ftracker.coppersurfer.tk%3A6969","udp%3A%2F%2Fexodus.desync.com%3A6969"],"infoHash":"2e1f58e4360285f72d20576a4905f4b5d9e85e2a","infoHashBuffer":{"type":"Buffer","data":[46,31,88,228,54,2,133,247,45,32,87,106,73,5,244,181,217,232,94,42]},"announce":[],"urlList":[]}}